#!OML:ASF E:\emotionWalksFemale\Project 1\Capture day 1\Session 1\Female1.ASF
:FULLY-SPECIFIED
:DEGREES
1148
root 10.2917 15.6241 -23.3876 183.692 -179.755 -181.169
lowerback 6.53099 2.68729 3.28238
upperback -4.73488 3.96075 0.0960687
thorax -8.45108 1.74459 -2.27355
lowerneck -3.87547 -5.20134 -8.14213
upperneck 13.3771 -7.329 7.40728
head 5.22226 -3.56118 3.20273
rclavicle -3.36008e-014 -4.96962e-015
rhumerus -42.9602 19.3499 -94.3551
rradius 46.6125
rwrist 0.240212
rhand -5.88663 -49.9694
rfingers 7.12502
rthumb 19.9413 1001.03
lclavicle -3.36008e-014 -4.96962e-015
lhumerus -53.5521 2.43205 79.1811
lradius 36.0026
lwrist -21.9656
lhand -2.49971 -24.5235
lfingers 7.12502
lthumb 23.194 4.09999
rfemur 6.27157 -0.473965 25.6583
rtibia 41.853
rfoot 14.0317 -3.42952
rtoes -10.7305
lfemur -21.6524 -20.5796 -22.4381
ltibia 23.8587
lfoot -12.7556 20.1944
ltoes 4.58807
1149
root 10.3053 15.6471 -23.2297 183.637 -179.689 -180.784
lowerback 6.63028 2.43939 2.81888
upperback -4.78101 3.58419 0.092569
thorax -8.60731 1.58369 -1.9773
lowerneck -3.9768 -4.98093 -7.88664
upperneck 13.6026 -7.01573 7.1114
head 5.26436 -3.41027 3.08763
rclavicle 8.32411e-015 -6.16232e-015
rhumerus -43.5925 19.6704 -94.305
rradius 46.1199
rwrist 0.667223
rhand -5.19163 -50.0281
rfingers 7.12502
rthumb 20.6093 1001.05
lclavicle 8.32411e-015 -6.16232e-015
lhumerus -53.0162 1.96976 79.7923
lradius 37.3463
lwrist -19.2631
lhand -4.34912 -25.7421
lfingers 7.12502
lthumb 21.4187 3.09396
rfemur 3.98496 -1.23309 24.654
rtibia 45.8875
rfoot 14.5335 -1.90734
rtoes -14.7049
lfemur -20.4023 -20.8013 -23.188
ltibia 23.069
lfoot -13.0522 20.6237
ltoes 2.23422
1150
root 10.3186 15.6574 -23.0719 183.527 -179.637 -180.265
lowerback 6.67756 2.19959 2.21166
upperback -4.67462 3.19392 0.0541939
thorax -8.56728 1.42967 -1.6261
lowerneck -4.31233 -4.79137 -7.57909
upperneck 13.7092 -6.72423 6.7923
head 5.31082 -3.26462 2.94975
rclavicle -2.69105e-014 -9.74045e-015
rhumerus -43.9484 20.0312 -94.1709
rradius 45.5018
rwrist 1.51031
rhand -4.87359 -50.1884
rfingers 7.12502
rthumb 20.9149 1000.92
lclavicle -2.69105e-014 -9.74045e-015
lhumerus -52.1956 1.31703 80.4993
lradius 38.8077
lwrist -16.4367
lhand -5.15178 -25.1625
lfingers 7.12502
lthumb 20.6476 3.75923
rfemur 1.80593 -2.03153 23.5767
rtibia 49.749
rfoot 14.8091 -1.47484
rtoes -15.7313
lfemur -19.0593 -21.0353 -24.1312
ltibia 22.2273
lfoot -13.257 21.2246
ltoes -0.933757
1151
root 10.3291 15.6641 -22.9202 183.449 -179.587 -179.655
lowerback 6.67983 2.04234 1.48191
upperback -4.60423 2.89657 -0.0485374
thorax -8.53272 1.32523 -1.28482
lowerneck -4.16718 -4.57351 -7.34192
upperneck 13.5552 -6.44337 6.73691
head 5.20725 -3.12264 2.91735
rclavicle 8.68441e-015 1.33186e-014
rhumerus -44.4507 19.9988 -93.9523
rradius 44.7101
rwrist 2.94966
rhand -4.62389 -50.1602
rfingers 7.12502
rthumb 21.1547 1000.97
lclavicle 8.68441e-015 1.33186e-014
lhumerus -51.1662 0.630268 80.9672
lradius 39.7782
lwrist -14.3225
lhand -6.45783 -25.5025
lfingers 7.12502
lthumb 19.3922 3.55052
rfemur -0.376991 -2.7826 22.4931
rtibia 53.3513
rfoot 13.8267 -2.83337
rtoes -13.6299
lfemur -17.8306 -21.5265 -25.0944
ltibia 21.4059
lfoot -13.6359 22.0383
ltoes -1.81877
1152
root 10.3362 15.6762 -22.7798 183.395 -179.665 -179.056
lowerback 6.93023 1.85707 0.740999
upperback -4.64116 2.5637 -0.160394
thorax -8.75607 1.19981 -0.95378
lowerneck -4.09302 -4.35471 -7.14128
upperneck 13.6335 -6.17058 6.72427
head 5.19137 -2.98147 2.90107
rclavicle -9.20621e-015 3.18055e-015
rhumerus -44.9912 19.6276 -93.5826
rradius 43.9136
rwrist 4.44528
rhand -4.37584 -50.2967
rfingers 7.12502
rthumb 21.393 1000.86
lclavicle -9.20621e-015 3.18055e-015
lhumerus -50.1314 -0.00369957 81.2782
lradius 40.7145
lwrist -12.3821
lhand -7.28192 -25.5949
lfingers 7.12502
lthumb 18.5997 3.53592
rfemur -2.52303 -3.39441 21.5136
rtibia 56.8071
rfoot 12.0571 -4.63477
rtoes -7.80259
lfemur -16.6711 -21.9583 -26.0285
ltibia 20.5975
lfoot -13.9464 22.5906
ltoes -1.83014
1153
root 10.3438 15.6759 -22.6369 183.339 -179.8 -178.487
lowerback 7.05336 1.6104 0.0837827
upperback -4.57017 2.15374 -0.247446
thorax -8.77948 1.0362 -0.621895
lowerneck -4.38792 -4.13462 -7.04166
upperneck 13.8328 -5.87324 6.73109
head 5.2784 -2.82431 2.90116
rclavicle -1.08089e-015 -1.15295e-014
rhumerus -45.2554 19.3456 -93.0535
rradius 43.2127
rwrist 5.47157
rhand -4.36704 -50.5595
rfingers 7.12502
rthumb 21.4015 1000.6
lclavicle -1.08089e-015 -1.15295e-014
lhumerus -48.9583 -0.373647 81.3806
lradius 41.6738
lwrist -10.575
lhand -8.05715 -25.3747
lfingers 7.12502
lthumb 17.8539 3.82577
rfemur -4.74994 -3.97632 20.6508
rtibia 59.8808
rfoot 10.278 -4.81435
rtoes -9.92411
lfemur -15.4882 -22.3827 -26.9538
ltibia 19.7708
lfoot -14.2371 22.943
ltoes -1.74833
1154
root 10.3529 15.6744 -22.4905 183.327 -179.917 -177.979
lowerback 7.04857 1.3961 -0.444501
upperback -4.47083 1.80055 -0.339816
thorax -8.68522 0.892802 -0.370221
lowerneck -4.60353 -3.99876 -6.97193
upperneck 13.8505 -5.68411 6.73778
head 5.30499 -2.7239 2.90075
rclavicle -3.28616e-014 4.96962e-015
rhumerus -45.4734 18.9037 -92.3952
rradius 42.4877
rwrist 6.12016
rhand -4.76567 -50.5344
rfingers 7.12502
rthumb 21.0185 1000.58
lclavicle -3.28616e-014 4.96962e-015
lhumerus -47.486 -0.722032 81.3817
lradius 42.2758
lwrist -9.18104
lhand -8.55691 -25.4945
lfingers 7.12502
lthumb 17.3729 3.74913
rfemur -6.90626 -4.33072 19.8716
rtibia 62.7004
rfoot 8.0688 -4.91947
rtoes -10.0525
lfemur -14.3898 -22.8226 -27.8043
ltibia 19.0117
lfoot -14.6024 23.3669
ltoes -0.685461
